<svg width="249.126" height="249.126" xmlns="http://www.w3.org/2000/svg">
 <g>
  <title>Layer 1</title>
  <path id="svg_2" d="m139.144,196.04601l39.867,-23.457l-20.23601,-116.216l-53.189,14.22901l33.558,125.44399z" fill="#F16529"/>
  <path id="svg_1" d="m85.003,206.813l-47.391,-129.659l130.145,-34.813l23.674,135.994l-49.34399,29.01599l-57.08401,-0.53799l0,0l0,0z" fill="#E44D26"/>
  <path id="svg_11" d="m136.12399,158.87399l10.62601,5.12601l13,-128l24.75,-9.75l3,-6.5l-35.75,8.75l-15.62601,130.37399z" stroke-linecap="null" stroke-linejoin="null" fill="#BCBCBC"/>
  <path id="svg_7" d="m143.87399,161.12399l-8.37399,-2.12399l7,-133.25l44,-17l1.25,10.25l-32.5,13l-11.37601,129.12399z" stroke-linecap="null" stroke-linejoin="null" fill="#EFEFEF"/>
  <path id="svg_8" d="m178.767,172.51401l-39.717,23.45499l-46.48801,-1.86l-34.2975,-93.80119l107.6445,-0.8264l12.858,73.03261z" stroke-linecap="null" stroke-linejoin="null" fill="#F16529"/>
  <path id="svg_3" d="m229.65401,109.42l6.064,20.864l-46.424,13.117s0,27.922 -22.52901,39.022c-22.52699,11.101 -40.027,1.68799 -40.027,1.68799l-2.802,-8.07399l33.417,-9.08601l7.396,-28.59999l-21.52899,-21.17599l-30.948,9.36l-2.687,-7.345s14.46,-31.959 57.186,-13.78201c0,0 13.463,8.40101 16.48201,15.81001l46.401,-11.798zm6.064,-1.567l7.397,-2.131l5.95099,21.306l-7.74199,2.34801l-5.606,-21.52301z" fill="#EFEFEF"/>
  <path id="svg_4" d="m238.32401,106.912l4.791,-1.19l5.95099,21.306l-7.74199,2.34801l-2.028,-7.134l3.09,-1.20901l-4.062,-14.12099zm-13.789,3.813l5.119,-1.305l6.064,20.864l-46.424,13.117s-0.5,24.36301 -16.65601,35.395c-16.129,11.02299 -34.30701,10.69099 -45.906,5.31599l-1.293,-3.72299s31.568,7.422 47.199,-16.297c9.42599,-15.63701 9.25999,-26.91101 9.25999,-26.91101l46.584,-12.61099l-3.94699,-13.84501zm-114.956,8.452l27.249,-7.908l6.37999,5.89301l-30.94199,9.36l-2.687,-7.345z" fill="#BCBCBC"/>
  <path id="svg_5" d="m13.516,133.96399l5.47,21.02402l46.586,-12.47701s14.294,23.98 39.336,21.983c25.049,-1.996 35.25401,-19.034 35.25401,-19.034l-1.72701,-8.368l-33.354,9.29599l-20.993,-20.774l7.658,-29.228l31.384,-7.793l-1.453,-7.69s-28.772,-20.059 -56.188,17.416c0,0 -7.256,14.102 -6.072,22.01001l-45.901,13.63498l0,0l0,0l0,0l0,0l0,0zm-6.008,1.76001l-7.448,1.951l5.791,21.34399l7.857,-1.939l-6.2,-21.356z" fill="#EFEFEF"/>
  <path id="svg_6" d="m4.789,136.241l-4.729,1.43401l5.791,21.34399l7.857,-1.939l-1.901,-7.173l-3.288,0.545l-3.73,-14.211zm13.807,-3.77499l-5.08,1.49799l5.47,21.02402l46.586,-12.47701s12.905,20.666 32.426,21.882c19.502,1.20299 34.94099,-8.369 42.164,-18.933l-0.787,-3.858s-23.334,22.53499 -48.907,10.15399c-16.098,-8.61099 -21.716,-18.395 -21.716,-18.395l-46.483,13.01401l-3.673,-13.909l0,0l0,0l0,0l0,0l0,0zm103.081,-51.556l-27.44801,7.14l-2.476,8.337l31.383,-7.793l-1.459,-7.684z" fill="#BCBCBC"/>
  <circle id="svg_12" r="0.46199" cy="155.5714" cx="146.32853" stroke-linecap="null" stroke-linejoin="null" fill="#EFEFEF"/>
  <circle id="svg_13" r="3.15378" cy="146.6871" cx="146.32853" stroke-linecap="null" stroke-linejoin="null" fill="#EFEFEF"/>
  <circle id="svg_14" r="7.52077" cy="175.40611" cx="106.86572" stroke-linecap="null" stroke-linejoin="null" fill="#EFEFEF"/>
  <circle id="svg_15" r="3.22736" cy="166.52182" cx="126.49382" stroke-linecap="null" stroke-linejoin="null" fill="#EFEFEF"/>
  <circle id="svg_16" r="4.42168" cy="127.05901" cx="100.25415" stroke-linecap="null" stroke-linejoin="null" fill="#EFEFEF"/>
  <circle id="svg_17" r="4.13223" cy="128.7119" cx="132.27894" stroke-linecap="null" stroke-linejoin="null" fill="#EFEFEF"/>
  <circle id="svg_18" r="2.97979" cy="134.0838" cx="146.53514" stroke-linecap="null" stroke-linejoin="null" fill="#EFEFEF"/>
  <circle id="svg_19" r="1.75316" cy="112.18297" cx="103.35332" stroke-linecap="null" stroke-linejoin="null" fill="#EFEFEF"/>
  <circle id="svg_20" r="1.46096" cy="133.25735" cx="113.27068" stroke-linecap="null" stroke-linejoin="null" fill="#F16529"/>
  <circle id="svg_21" r="1.94917" cy="134.29041" cx="113.47729" stroke-linecap="null" stroke-linejoin="null" fill="#F16529"/>
  <circle id="svg_22" r="5.69964" cy="133.25735" cx="112.44423" stroke-linecap="null" stroke-linejoin="null" fill="#F16529"/>
  <path fill-opacity="0.5" id="svg_24" d="m47.77481,104.74496l-9.96489,-27.37099l12.19008,-2.68594l7.85124,25.82644l-10.07643,4.2305z" stroke-linecap="null" stroke-linejoin="null" fill="#e44d26"/>
 </g>
</svg>