<svg width="249.126" height="198.191" xmlns="http://www.w3.org/2000/svg">
 <g>
  <title>Layer 1</title>
  <path id="svg_2" d="m139.143997,184.796005l39.867004,-23.457001l-20.236008,-116.216003l-53.188995,14.229l33.557999,125.444004z" fill="#F16529"/>
  <path id="svg_1" d="m85.002998,195.563004l-47.390999,-129.658997l130.145004,-34.813l23.673996,135.993999l-49.343994,29.015991l-57.084007,-0.537994l0,0l0,0z" fill="#E44D26"/>
  <path id="svg_10" d="m192.815994,8.1644l-2.733002,3.2075l-27.479996,10.9504l-13.636002,129.751705l-4.54599,-1.653l13.636993,-130.784605l34.757996,-11.472l0,0l0,0l0,0l0,0z" stroke-linecap="null" stroke-linejoin="null" fill="#BCBCBC"/>
  <path id="svg_9" d="m141.989685,149.899918l1.605362,0.934799l8.057846,-134.710739l40.289261,-16.115706l1.23967,7.851241l-32.644638,13.22314l-12.190079,130.371922l2.47934,-0.619843l-7.2314,-1.446274" stroke-linecap="null" stroke-linejoin="null" fill="#EFEFEF"/>
  <path id="svg_8" d="m178.766998,161.264008l-39.716995,23.454987l-46.488007,-1.860001l-34.297497,-93.801193l107.644497,-0.826401l12.858002,73.032608z" stroke-linecap="null" stroke-linejoin="null" fill="#F16529"/>
  <path id="svg_3" d="m229.654007,98.169998l6.063995,20.863998l-46.423996,13.117004s0,27.921997 -22.529007,39.022003c-22.526993,11.100998 -40.027,1.687988 -40.027,1.687988l-2.802002,-8.07399l33.417,-9.086014l7.395996,-28.599991l-21.528992,-21.175995l-30.947998,9.360001l-2.687004,-7.345001s14.459999,-31.959 57.185997,-13.781998c0,0 13.462997,8.400993 16.48201,15.809998l46.401001,-11.798004zm6.063995,-1.567001l7.397003,-2.130997l5.950989,21.306l-7.741989,2.348l-5.606003,-21.523003z" fill="#EFEFEF"/>
  <path id="svg_4" d="m238.324005,95.662003l4.791,-1.190002l5.950989,21.306l-7.741989,2.348l-2.028,-7.134003l3.089996,-1.209l-4.061996,-14.120995zm-13.789001,3.812996l5.119003,-1.305l6.063995,20.863998l-46.423996,13.117004s-0.5,24.363007 -16.656006,35.395004c-16.128998,11.022995 -34.307007,10.690994 -45.905998,5.315994l-1.292999,-3.722992s31.568001,7.421997 47.198997,-16.296997c9.425995,-15.637009 9.259995,-26.911011 9.259995,-26.911011l46.584,-12.611l-3.946991,-13.845001zm-114.956001,8.452003l27.249001,-7.908005l6.37999,5.893005l-30.941994,9.360001l-2.686996,-7.345001z" fill="#BCBCBC"/>
  <path id="svg_5" d="m13.516,122.713997l5.47,21.02401l46.585999,-12.477005s14.293999,23.979996 39.335999,21.983002c25.049004,-1.996002 35.254005,-19.033997 35.254005,-19.033997l-1.727005,-8.368004l-33.353996,9.295998l-20.993004,-20.774002l7.658005,-29.227997l31.383995,-7.792999l-1.452995,-7.690002s-28.772003,-20.058998 -56.188004,17.416c0,0 -7.255997,14.101997 -6.071999,22.010002l-45.901,13.634995l0,0l0,0l0,0l0,0zm-6.008,1.760002l-7.448,1.951004l5.791,21.343994l7.857,-1.938995l-6.2,-21.356003z" fill="#EFEFEF"/>
  <path id="svg_6" d="m4.789,124.990997l-4.729,1.434006l5.791,21.343994l7.857,-1.938995l-1.901,-7.173004l-3.288,0.544998l-3.73,-14.210999zm13.807001,-3.774994l-5.080001,1.497993l5.47,21.02401l46.585999,-12.477005s12.904999,20.666 32.426003,21.882004c19.501999,1.202988 34.940994,-8.369003 42.164001,-18.932999l-0.787003,-3.858002s-23.334,22.534988 -48.906998,10.153992c-16.098,-8.610992 -21.716003,-18.394997 -21.716003,-18.394997l-46.483,13.014l-3.672998,-13.908997l0,0l0,0l0,0l0,0zm103.081001,-51.556l-27.448006,7.139999l-2.475998,8.336998l31.383003,-7.792999l-1.459,-7.683998z" fill="#BCBCBC"/>
  <circle id="svg_12" r="0.46199" cy="144.321402" cx="146.328531" stroke-linecap="null" stroke-linejoin="null" fill="#EFEFEF"/>
  <circle id="svg_13" r="3.153778" cy="135.437104" cx="146.328531" stroke-linecap="null" stroke-linejoin="null" fill="#EFEFEF"/>
  <circle id="svg_14" r="7.520767" cy="164.156112" cx="106.865721" stroke-linecap="null" stroke-linejoin="null" fill="#EFEFEF"/>
  <circle id="svg_15" r="3.227356" cy="155.271815" cx="126.49382" stroke-linecap="null" stroke-linejoin="null" fill="#EFEFEF"/>
  <circle id="svg_16" r="4.42168" cy="115.809005" cx="100.254151" stroke-linecap="null" stroke-linejoin="null" fill="#EFEFEF"/>
  <circle id="svg_17" r="4.132233" cy="117.461898" cx="132.278944" stroke-linecap="null" stroke-linejoin="null" fill="#EFEFEF"/>
  <circle id="svg_18" r="2.97979" cy="122.833799" cx="146.535143" stroke-linecap="null" stroke-linejoin="null" fill="#EFEFEF"/>
  <circle id="svg_19" r="1.753159" cy="100.932972" cx="103.353325" stroke-linecap="null" stroke-linejoin="null" fill="#EFEFEF"/>
  <circle id="svg_20" r="1.460964" cy="122.007352" cx="113.27068" stroke-linecap="null" stroke-linejoin="null" fill="#F16529"/>
  <circle id="svg_21" r="1.949169" cy="123.04041" cx="113.477292" stroke-linecap="null" stroke-linejoin="null" fill="#F16529"/>
  <circle id="svg_22" r="5.699635" cy="122.007352" cx="112.444234" stroke-linecap="null" stroke-linejoin="null" fill="#F16529"/>
  <path fill-opacity="0.5" id="svg_24" d="m47.774811,93.494957l-9.964893,-27.370995l12.190083,-2.685944l7.851238,25.826447l-10.076427,4.230492z" stroke-linecap="null" stroke-linejoin="null" fill="#e44d26"/>
 </g>
</svg>